<?xml version="1.0" standalone="no"?>
<!DOCTYPE svg PUBLIC "-//W3C//DTD SVG 20010904//EN"
 "http://www.w3.org/TR/2001/REC-SVG-20010904/DTD/svg10.dtd">
<svg version="1.0" xmlns="http://www.w3.org/2000/svg"
 width="700.000000pt" height="700.000000pt" viewBox="0 0 700.000000 700.000000"
 preserveAspectRatio="xMidYMid meet">
<metadata>
Created by potrace 1.11, written by Peter Selinger 2001-2013
</metadata>
<g transform="translate(0.000000,700.000000) scale(0.100000,-0.100000)"
fill="#000000" stroke="none">
<path d="M0 3500 l0 -3500 3282 2 3281 3 0 3495 0 3495 -438 0 -438 0 1 -216
1 -216 -438 0 -439 0 0 196 c-1 108 -1 206 -1 219 l-1 22 -1530 0 -1530 0 -2
-217 -3 -218 -435 -1 -435 -1 0 216 0 216 -437 3 -438 2 0 -3500z m6122 1738
c2 -7 4 -1090 4 -2407 l-1 -2394 -2838 0 c-1560 0 -2840 3 -2844 6 -4 5 -9
4755 -4 4800 1 4 1279 7 2840 7 2262 0 2840 -3 2843 -12z"/>
<path d="M2190 4370 c-1 -8 -1 -811 -1 -842 l1 -28 435 0 435 0 1 23 c6 173 2
840 -6 845 -12 8 -865 10 -865 2z"/>
<path d="M3500 3938 l0 -438 438 0 437 0 0 435 c0 284 -3 435 -10 436 -5 1
-202 2 -437 3 l-428 1 0 -437z"/>
<path d="M4815 4370 c-2 -3 -3 -200 -3 -437 l0 -433 438 0 439 0 -2 437 -2
438 -433 0 c-239 0 -435 -2 -437 -5z"/>
<path d="M882 3055 c-4 -5 -7 -202 -7 -437 l0 -428 57 -1 c32 0 195 0 363 0
168 0 339 0 380 0 l75 1 0 435 c0 239 -3 435 -7 436 -5 0 -199 1 -431 2 -274
1 -426 -2 -430 -8z"/>
<path d="M2198 3059 c-10 -6 -15 -855 -5 -865 7 -7 858 -7 865 1 7 7 7 854 -1
861 -7 8 -847 10 -859 3z"/>
<path d="M3533 3062 l-33 -3 0 -435 0 -434 183 0 c295 -1 671 -1 682 -1 12 1
14 855 3 867 -7 7 -769 12 -835 6z"/>
<path d="M4848 3062 l-37 -3 1 -435 0 -434 72 -1 c77 0 487 0 682 1 l122 0 1
435 c0 335 -2 435 -12 436 -46 2 -799 3 -829 1z"/>
<path d="M875 1313 l0 -438 438 0 437 0 0 437 0 438 -438 0 -437 0 0 -437z"/>
<path d="M2189 1733 c0 -22 0 -810 0 -838 1 -20 7 -20 430 -20 236 0 433 3
437 7 5 6 10 719 5 846 l-1 22 -435 0 c-407 0 -435 -1 -436 -17z"/>
<path d="M3500 1312 l0 -437 437 0 438 0 0 438 0 437 -437 0 -438 0 0 -438z"/>
</g>
</svg>
